<svg width="98" height="18" viewBox="0 0 98 18" fill="none" xmlns="http://www.w3.org/2000/svg">
<path d="M10.8398 17L16.4766 0.0898438L12.668 0.0898438L8.89453 13.0156H8.68359L4.83984 0.0898438L0.84375 0.0898438L6.5625 17H10.8398ZM25.8633 11.7734V8.57422H18.1641V11.7734H25.8633ZM36.2227 17L36.2227 3.11328L41.2969 3.11328V0.0898438L27.6094 0.0898438V3.11328L32.6836 3.11328L32.6836 17L36.2227 17ZM47.4492 6.40625C49.043 6.40625 50.0742 7.47266 50.1445 9.18359L44.6367 9.18359C44.7539 7.50781 45.8672 6.40625 47.4492 6.40625ZM50.2148 13.3203C49.8516 14.1758 48.9258 14.6563 47.5781 14.6563C45.7969 14.6563 44.6719 13.4609 44.625 11.5391V11.3633H53.4961V10.3203C53.4961 6.21875 51.2461 3.79297 47.4375 3.79297C43.5938 3.79297 41.2266 6.39453 41.2266 10.6016C41.2266 14.7969 43.5469 17.2813 47.4844 17.2813C50.6484 17.2813 52.875 15.7578 53.3906 13.3203H50.2148ZM60.9609 14.6328C59.7773 14.6328 58.9453 14.0469 58.9453 13.0859C58.9453 12.1602 59.6602 11.6328 61.125 11.5273L63.7383 11.3633V12.3125C63.7383 13.625 62.543 14.6328 60.9609 14.6328ZM59.8359 17.1992C61.5117 17.1992 62.918 16.4961 63.5859 15.3125H63.7969L63.7969 17H67.1016V8.17578C67.1016 5.41016 65.168 3.79297 61.7461 3.79297C58.5 3.79297 56.3086 5.29297 56.0859 7.68359H59.2266C59.5078 6.91016 60.3281 6.48828 61.5586 6.48828C62.9648 6.48828 63.7383 7.09766 63.7383 8.17578V9.23047L60.6094 9.41797C57.3984 9.60547 55.6055 10.9648 55.6055 13.3086C55.6055 15.6758 57.3516 17.1992 59.8359 17.1992ZM70.4531 17H73.8633V9.21875C73.8633 7.77734 74.8125 6.73438 76.1484 6.73438C77.4844 6.73438 78.2812 7.51953 78.2812 8.89063V17H81.5625V9.08984C81.5625 7.71875 82.4531 6.73438 83.8359 6.73438C85.2773 6.73438 85.9922 7.49609 85.9922 9.03125V17H89.4023V8.12891C89.4023 5.46875 87.7969 3.79297 85.2188 3.79297C83.4141 3.79297 81.9258 4.74219 81.3281 6.18359H81.1172C80.6016 4.68359 79.3594 3.79297 77.543 3.79297C75.8438 3.79297 74.4961 4.70703 73.9688 6.18359H73.7578V4.07422L70.4531 4.07422V17Z" fill="#585858"/>
<path d="M95.1797 17.3164C96.4453 17.3164 97.2539 16.4609 97.2539 15.2773C97.2539 14.0938 96.4453 13.25 95.1797 13.25C93.9258 13.25 93.1055 14.0938 93.1055 15.2773C93.1055 16.4609 93.9258 17.3164 95.1797 17.3164Z" fill="#FF00B8"/>
</svg>
